<?xml version="1.0" encoding="utf-8"?>
<!-- Generator: Adobe Illustrator 23.0.2, SVG Export Plug-In . SVG Version: 6.00 Build 0)  -->
<svg version="1.1" id="Calque_1" xmlns="http://www.w3.org/2000/svg" xmlns:xlink="http://www.w3.org/1999/xlink" x="0px" y="0px"
	 viewBox="0 0 330 65.3" style="enable-background:new 0 0 330 65.3;" xml:space="preserve">
<style type="text/css">
	.st0{fill:#84746E;}
	.st1{fill:#E0081A;}
	.st2{fill:#FFFFFF;}
	.st3{fill:#84746E;stroke:#84746E;stroke-width:0.4252;stroke-miterlimit:10;}
	.st4{fill:none;}
</style>
<polygon class="st0" points="264.2,53 263.5,53 263.7,12.7 264.3,12.7 "/>
<g>
	<rect x="277" y="12.6" class="st1" width="40.3" height="40.3"/>
	<path class="st2" d="M282.1,34.4c-0.9,0-1.3,0.7-1.3,1.7c0,0.8,0.4,1.6,1.3,1.6c0.7,0,1-0.4,1.1-1.1h1c-0.1,1.3-1,2-2.1,2
		c-1.5,0-2.4-1.1-2.4-2.5c0-1.5,0.9-2.6,2.4-2.6c1.1,0,2,0.7,2.1,1.7h-1C283.1,34.8,282.7,34.4,282.1,34.4"/>
	<path class="st2" d="M287.9,37.7v-1.8c0-0.9-1-1-1.5-1c-0.7,0-1.6,0.3-1.6,1.2h1c0-0.4,0.3-0.5,0.6-0.5c0.3,0,0.6,0.1,0.6,0.5
		c0,0.2-0.2,0.4-0.7,0.4c-0.1,0-0.3,0-0.4,0.1c-0.6,0.1-1.2,0.3-1.2,1.1c0,0.7,0.5,1,1.2,1c0.4,0,0.9-0.1,1.2-0.4
		c0,0.1,0,0.3,0.1,0.3h1C287.9,38.3,287.9,38,287.9,37.7 M286.9,37.1c0,0.6-0.3,0.8-0.8,0.8c-0.3,0-0.6-0.1-0.6-0.4
		c0-0.2,0.1-0.4,0.6-0.5c0.1,0,0.2,0,0.2,0c0.2,0,0.5-0.1,0.6-0.2V37.1z"/>
	<path class="st2" d="M288.5,33.6h1v0.8h-1V33.6z M289.5,38.5h-1V35h1V38.5z"/>
	<path class="st2" d="M291.6,38c0.3,0,0.6-0.1,0.6-0.4c0-0.1,0-0.2-0.1-0.2c-0.3-0.3-1.4-0.3-1.9-0.7c-0.1-0.1-0.2-0.3-0.2-0.5
		c0-0.7,0.5-1.1,1.5-1.1c0.7,0,1.5,0.2,1.5,1.1h-0.9c0-0.4-0.3-0.5-0.7-0.5c-0.2,0-0.5,0-0.5,0.3c0,0.2,0.2,0.3,0.7,0.4
		c0.1,0,0.3,0.1,0.4,0.1c0.6,0.1,1.1,0.3,1.1,1c0,0.7-0.5,1.2-1.6,1.2c-0.9,0-1.6-0.3-1.6-1.2h0.9C290.9,37.8,291.2,38,291.6,38"/>
	<path class="st2" d="M289.1,44.5c0.3,0,0.6-0.1,0.6-0.4c0-0.1,0-0.2-0.1-0.2c-0.3-0.3-1.4-0.3-1.9-0.7c-0.1-0.1-0.2-0.3-0.2-0.5
		c0-0.7,0.5-1.1,1.5-1.1c0.7,0,1.5,0.2,1.5,1.1h-0.9c0-0.4-0.3-0.5-0.7-0.5c-0.2,0-0.5,0-0.5,0.3c0,0.2,0.2,0.3,0.7,0.4
		c0.1,0,0.3,0.1,0.4,0.1c0.6,0.1,1.1,0.3,1.1,1c0,0.7-0.5,1.2-1.6,1.2c-0.9,0-1.6-0.3-1.6-1.2h0.9C288.3,44.3,288.7,44.5,289.1,44.5
		"/>
	<path class="st2" d="M312.7,44.5c0.3,0,0.6-0.1,0.6-0.4c0-0.1,0-0.2-0.1-0.2c-0.3-0.3-1.4-0.3-1.9-0.7c-0.1-0.1-0.2-0.3-0.2-0.5
		c0-0.7,0.5-1.1,1.5-1.1c0.7,0,1.5,0.2,1.5,1.1h-0.9c0-0.4-0.3-0.5-0.7-0.5c-0.2,0-0.5,0-0.5,0.3c0,0.2,0.2,0.3,0.7,0.4
		c0.1,0,0.3,0.1,0.4,0.1c0.6,0.1,1.1,0.3,1.1,1c0,0.7-0.5,1.2-1.6,1.2c-0.9,0-1.6-0.3-1.6-1.2h0.9C312,44.3,312.3,44.5,312.7,44.5"
		/>
	<path class="st2" d="M295.2,38c0.3,0,0.6-0.1,0.6-0.4c0-0.1,0-0.2-0.1-0.2c-0.3-0.3-1.4-0.3-1.9-0.7c-0.1-0.1-0.2-0.3-0.2-0.5
		c0-0.7,0.5-1.1,1.5-1.1c0.7,0,1.5,0.2,1.5,1.1h-0.9c0-0.4-0.3-0.5-0.7-0.5c-0.2,0-0.5,0-0.5,0.3c0,0.2,0.2,0.3,0.7,0.4
		c0.1,0,0.3,0.1,0.4,0.1c0.6,0.1,1.1,0.3,1.1,1c0,0.7-0.5,1.2-1.6,1.2c-0.9,0-1.6-0.3-1.6-1.2h0.9C294.5,37.8,294.8,38,295.2,38"/>
	<path class="st2" d="M298.9,37.9c0.4,0,0.7-0.2,0.8-0.5h0.8c-0.3,0.9-0.9,1.2-1.6,1.2c-1.2,0-1.8-0.8-1.8-1.8
		c0-1.1,0.7-1.9,1.8-1.9c1.3,0,1.8,1.1,1.7,2.1h-2.5C298.1,37.6,298.4,37.9,298.9,37.9 M298.9,35.6c-0.5,0-0.8,0.3-0.8,0.7h1.6
		C299.5,35.9,299.3,35.6,298.9,35.6"/>
	<path class="st2" d="M285.5,44.5c0.4,0,0.7-0.2,0.8-0.5h0.8c-0.3,0.9-0.9,1.2-1.6,1.2c-1.2,0-1.8-0.8-1.8-1.8
		c0-1.1,0.7-1.9,1.8-1.9c1.3,0,1.8,1.1,1.7,2.1h-2.5C284.6,44.2,285,44.5,285.5,44.5 M285.4,42.2c-0.5,0-0.8,0.3-0.8,0.7h1.6
		C286.1,42.5,285.9,42.2,285.4,42.2"/>
	<path class="st2" d="M282.4,44.7c-0.2,0.4-0.6,0.5-1.1,0.5c-1.1,0-1.6-0.9-1.6-1.9c0-1,0.6-1.8,1.5-1.8c0.4,0,0.8,0.2,1,0.5h0v-1.8
		h1v4.9h-0.9L282.4,44.7L282.4,44.7z M281.5,42.2c-0.6,0-0.8,0.5-0.8,1.1c0,0.5,0.2,1.1,0.8,1.1c0.6,0,0.8-0.6,0.8-1.1
		C282.4,42.8,282.2,42.2,281.5,42.2"/>
	<path class="st2" d="M294.6,40.2c1.2,0,2.2,0.8,2.2,2.4c0,1.5-0.8,2.5-2.2,2.5h-2.1v-4.9H294.6z M294.5,44.2c0.7,0,1.2-0.5,1.2-1.5
		c0-0.9-0.3-1.6-1.4-1.6h-0.8v3.1H294.5z"/>
	<path class="st2" d="M298.9,44.5c0.4,0,0.7-0.2,0.8-0.5h0.8c-0.3,0.9-0.9,1.2-1.6,1.2c-1.2,0-1.8-0.8-1.8-1.8
		c0-1.1,0.7-1.9,1.8-1.9c1.3,0,1.8,1.1,1.7,2.1h-2.5C298.1,44.2,298.4,44.5,298.9,44.5 M298.9,42.2c-0.5,0-0.8,0.3-0.8,0.7h1.6
		C299.5,42.5,299.3,42.2,298.9,42.2"/>
	<polygon class="st2" points="299.1,39.8 298.4,41 299,41 300.1,39.8 	"/>
	<path class="st2" d="M301.9,41.6V42h0c0.2-0.4,0.6-0.5,1-0.5c1.1,0,1.6,1,1.6,1.9c0,1-0.5,1.8-1.5,1.8c-0.5,0-0.8-0.2-1-0.5h0v1.7
		h-1v-4.7H301.9z M303.6,43.4c0-0.6-0.3-1.1-0.8-1.1c-0.5,0-0.8,0.4-0.8,1.1c0,0.6,0.2,1.1,0.8,1.1C303.3,44.5,303.6,44,303.6,43.4"
		/>
	<path class="st2" d="M306.7,41.5c1.1,0,1.8,0.7,1.8,1.9c0,1.1-0.6,1.8-1.8,1.8c-1,0-1.8-0.7-1.8-1.8
		C304.9,42.2,305.6,41.5,306.7,41.5 M307.1,40.2l0.7,1h-0.8l-0.4-0.6l-0.4,0.6h-0.7l0.7-1H307.1z M306.7,44.5c0.6,0,0.8-0.5,0.8-1.1
		c0-0.5-0.2-1.1-0.8-1.1c-0.6,0-0.8,0.5-0.8,1.1C305.8,44,306.1,44.5,306.7,44.5"/>
	<path class="st2" d="M310.8,41.6v0.6h-0.7V44c0,0.3,0.1,0.4,0.4,0.4c0.1,0,0.2,0,0.3,0v0.7c-0.2,0-0.4,0-0.6,0
		c-0.6,0-1.1-0.1-1.1-0.8v-2.1h-0.6v-0.6h0.6v-1.1h1v1.1H310.8z"/>
	<path class="st2" d="M279.9,48.7L279.9,48.7c0-0.7,0.5-1.3,1.3-1.3c0.4,0,0.7,0.1,1,0.3l-0.3,0.3c-0.2-0.2-0.4-0.3-0.7-0.3
		c-0.5,0-0.8,0.4-0.8,0.9v0c0,0.5,0.3,0.9,0.9,0.9c0.2,0,0.5-0.1,0.6-0.2v-0.5h-0.7v-0.4h1.1v1.1c-0.3,0.2-0.6,0.4-1.1,0.4
		C280.4,50,279.9,49.5,279.9,48.7"/>
	<path class="st2" d="M283.5,47.4h1.1c0.3,0,0.6,0.1,0.7,0.3c0.1,0.1,0.2,0.3,0.2,0.6v0c0,0.4-0.2,0.7-0.6,0.8l0.7,1h-0.5l-0.6-0.9
		h0h-0.6V50h-0.4V47.4z M284.6,48.7c0.3,0,0.5-0.2,0.5-0.4v0c0-0.3-0.2-0.4-0.5-0.4h-0.7v0.9H284.6z"/>
	<path class="st2" d="M286.5,48.7L286.5,48.7c0-0.7,0.6-1.3,1.3-1.3c0.8,0,1.3,0.6,1.3,1.3v0c0,0.7-0.6,1.3-1.3,1.3
		C287,50,286.5,49.4,286.5,48.7 M288.6,48.7L288.6,48.7c0-0.5-0.4-0.9-0.9-0.9c-0.5,0-0.9,0.4-0.9,0.9v0c0,0.5,0.4,0.9,0.9,0.9
		C288.3,49.6,288.6,49.2,288.6,48.7"/>
	<path class="st2" d="M290.1,48.9v-1.5h0.4v1.5c0,0.5,0.2,0.7,0.6,0.7c0.4,0,0.6-0.2,0.6-0.7v-1.5h0.4v1.5c0,0.8-0.4,1.2-1.1,1.2
		C290.5,50,290.1,49.6,290.1,48.9"/>
	<path class="st2" d="M293.3,47.4h1c0.6,0,1,0.3,1,0.9v0c0,0.6-0.5,0.9-1,0.9h-0.5V50h-0.4V47.4z M294.3,48.8c0.3,0,0.5-0.2,0.5-0.5
		v0c0-0.3-0.2-0.5-0.5-0.5h-0.5v0.9H294.3z"/>
	<polygon class="st2" points="296.2,47.4 298.1,47.4 298.1,47.8 296.6,47.8 296.6,48.5 297.9,48.5 297.9,48.9 296.6,48.9 
		296.6,49.6 298.1,49.6 298.1,50 296.2,50 	"/>
	<path class="st2" d="M306.6,26.1c0.1,0.2,0.3,0.3,0.4,0.5c0.2-0.1,0.4-0.1,0.7,0c-0.4-0.3-0.7-0.6-1-1.1c-0.2-0.2-0.3-0.5-0.4-0.7
		c-0.2-0.5-0.5-0.9-0.8-1.2c-0.4-0.4-1-0.6-1.6-0.1c0.2,0.2,0.7,0.4,1.1,0c0.3,0.2,0.5,0.5,0.7,0.9c0,0.1,0.1,0.3,0.2,0.4
		c-0.4-0.2-0.8-0.2-1,0.1c0.2,0.1,0.5,0.2,0.7-0.1c0,0,0.1,0,0.2,0.1c0.3,0.2,0.4,0.5,0.6,0.7c-0.1,0-0.3,0.1-0.4,0.2
		C306.2,25.7,306.4,25.8,306.6,26.1"/>
	<path class="st2" d="M305.7,19.1c0.1,0.3,0,0.6,0,0.7c-0.1,0.2-0.3,0.5-0.6,0.6c-0.4-0.3-0.8-0.1-1.1,0.2c0.4,0.3,1,0.2,1.5-0.2
		c-0.1,0.2-0.1,0.4-0.1,0.6c-0.1-0.1-0.3-0.1-0.4-0.1c0.2,0.1,0.4,0.2,0.4,0.5c0,0,0,0.2,0,0.2c-0.1-0.1-0.3-0.3-0.6-0.3
		c-0.2-0.1-0.6-0.1-0.8,0.1c0.2,0.4,0.7,0.4,1.1,0.2c0.1,0.1,0.3,0.3,0.3,0.6c0,0.4-0.2,0.6-0.6,0.7c0.2,0.1,0.4,0,0.6-0.1
		c0,0.2,0,0.3,0.1,0.5c0.2,0.1,0.3,0.3,0.5,0.5c-0.2-0.6-0.3-1.3-0.3-1.9c0-0.7,0.1-1.3,0.2-1.8c0.1-0.3,0.1-0.6,0.1-0.9
		c-0.1-0.6-0.5-0.8-1-0.9C304.9,18.7,305.2,19.2,305.7,19.1"/>
	<path class="st2" d="M306,19c0,0.1,0.1,0.3,0.1,0.4c0.1-0.2,0.1-0.3,0.2-0.5c0.6-1.2,0.4-1.8-0.4-2.1c-0.1,0.3-0.2,1,0.5,1.2
		c0,0.2-0.1,0.5-0.3,0.9C306.1,18.9,306,18.9,306,19"/>
	<path class="st2" d="M305.9,18.3c0-0.2-0.1-0.6-0.5-0.6C305.3,18.1,305.6,18.3,305.9,18.3"/>
	<path class="st2" d="M309.7,29l-0.6-0.4c0,0,0.1,0.2,0.1,0.4c0,0.2-0.1,0.4-0.1,0.4L309.7,29z"/>
	<path class="st2" d="M309.7,29.1l-0.4,0.6c0,0,0.2-0.1,0.4-0.1c0.2,0,0.4,0.1,0.4,0.1L309.7,29.1z"/>
	<path class="st2" d="M309.8,29l0.6,0.4c0,0-0.1-0.2-0.1-0.4c0-0.2,0.1-0.4,0.1-0.4L309.8,29z"/>
	<path class="st2" d="M309.3,28.3l0.4,0.6l0.4-0.6c0,0-0.2,0.1-0.4,0.1C309.5,28.4,309.3,28.3,309.3,28.3"/>
	<path class="st2" d="M306.8,26.6c-0.1-0.1-0.2-0.1-0.3-0.2c0-0.3-0.3-0.4-0.9-0.4c0.1,0.2,0.2,0.4,0.5,0.4
		c-0.2,0.1-0.4,0.3-0.6,0.7C305.9,27.3,306.5,27,306.8,26.6"/>
	<path class="st2" d="M305.7,25.3c-0.4-0.1-0.8,0.1-1,0.4C305.2,25.9,305.7,25.7,305.7,25.3"/>
	<path class="st2" d="M305.1,24.3c0.1-0.3-0.1-0.4-0.6-0.4c0,0.1,0.1,0.2,0.1,0.2c-0.2,0-0.3,0.2-0.6,0.4
		C304.4,24.7,304.8,24.6,305.1,24.3"/>
	<path class="st2" d="M305.1,19.4c0-0.1-0.1-0.1-0.1-0.2c0.1-0.2-0.1-0.3-0.4-0.4c0,0.1,0,0.3,0.1,0.4c-0.1,0-0.3,0.1-0.5,0.2
		C304.4,19.6,304.8,19.6,305.1,19.4"/>
	<path class="st2" d="M307.8,28.3c-0.2-0.2-0.6-0.2-0.7,0.1C307.3,28.5,307.6,28.5,307.8,28.3"/>
	<path class="st2" d="M305.3,19.9c-0.2-0.2-0.5-0.2-0.7,0C304.8,20.1,305.1,20.1,305.3,19.9"/>
	<path class="st2" d="M304.4,22.7c0.2,0.1,0.5,0.1,0.6-0.2C304.8,22.3,304.5,22.4,304.4,22.7"/>
	<path class="st2" d="M304.9,26.6c0.2,0.2,0.5,0.2,0.7,0C305.4,26.3,305,26.3,304.9,26.6"/>
	<path class="st2" d="M306.9,27.4c-0.3-0.2-0.6,0-0.7,0.3C306.5,27.8,306.8,27.7,306.9,27.4"/>
	<path class="st2" d="M304.9,25.2c-0.2-0.2-0.5-0.1-0.6,0C304.5,25.4,304.8,25.4,304.9,25.2"/>
	<path class="st2" d="M304.7,22.1c-0.3-0.3-0.7-0.3-0.9,0C304,22.4,304.4,22.5,304.7,22.1"/>
	<path class="st2" d="M310.2,27.7c0-0.1,0-0.1,0-0.2c0,0-0.1-0.1-0.4-0.3c0,0-0.1-0.1-0.1-0.1c-0.1,0-0.1,0-0.1,0.1
		c-0.2,0.2-0.3,0.3-0.3,0.3c-0.1,0-0.1,0.1,0,0.2c0,0.1,0.1,0.1,0.2,0c-0.1,0.1,0,0.2,0,0.2c0.1,0,0.1,0,0.2,0
		c0,0.1,0.1,0.2,0.1,0.2c0.1,0,0.2-0.1,0.1-0.2c0,0.1,0.1,0.1,0.2,0c0.1,0,0.1-0.1,0-0.2C310.1,27.8,310.2,27.8,310.2,27.7"/>
	<path class="st2" d="M308.4,26.9c-0.4-0.2-1-0.4-1.4-0.1c-0.2,0.1-0.3,0.2-0.3,0.4c0.3-0.3,1-0.4,1.2,0.2c0.1,0.2,0.1,0.4-0.1,0.5
		c0.1-0.4-0.2-0.6-0.5-0.6c0,0.2,0,0.4,0.1,0.5c-0.1,0-0.2,0-0.3,0c0,0,0.1,0.2,0.4,0.2c0.2,0,0.4-0.1,0.5-0.2
		c0,0.2,0.1,0.5,0.3,0.6c-0.3,0.1-0.5,0.3-0.6,0.6c1.1-0.1,1-0.5,0.9-0.7c-0.7,0.2-0.5-0.5-0.5-0.9c0.1,0,0.2,0.1,0.4,0.2
		c0,0.1-0.1,0.2-0.2,0.3c0.3,0,0.5-0.1,1-0.6C309,27.1,308.7,27,308.4,26.9"/>
	<path class="st2" d="M313.9,23.5c-0.3,0.3-0.5,0.7-0.8,1.2c-0.1,0.3-0.3,0.5-0.4,0.7c-0.3,0.4-0.6,0.8-1,1.1c0.3-0.1,0.5,0,0.7,0
		c0.1-0.1,0.3-0.3,0.4-0.5c0.2-0.3,0.4-0.4,0.7-0.3c-0.1-0.1-0.2-0.2-0.4-0.2c0.2-0.3,0.3-0.6,0.6-0.7c0,0,0.1-0.1,0.2-0.1
		c0.2,0.3,0.5,0.2,0.7,0.1c-0.2-0.3-0.6-0.4-1-0.1c0.1-0.1,0.1-0.3,0.2-0.4c0.2-0.5,0.4-0.8,0.7-0.9c0.4,0.4,0.9,0.2,1.1,0
		C314.9,23,314.4,23.1,313.9,23.5"/>
	<path class="st2" d="M313.5,19.2c0,0.2,0,0.5,0.1,0.9c0.1,0.4,0.2,1,0.2,1.8c0,0.7-0.1,1.3-0.3,1.9c0.2-0.2,0.3-0.4,0.5-0.5
		c0-0.2,0-0.3,0.1-0.5c0.2,0.1,0.4,0.2,0.6,0.1c-0.4-0.1-0.6-0.3-0.6-0.7c0-0.3,0.2-0.5,0.3-0.6c0.3,0.2,0.9,0.2,1.1-0.2
		c-0.3-0.1-0.6-0.2-0.8-0.1c-0.2,0.1-0.4,0.2-0.6,0.3c0,0,0-0.2,0-0.2c0-0.3,0.1-0.4,0.4-0.5c-0.2,0-0.3,0-0.4,0.1
		c0-0.2-0.1-0.4-0.1-0.6c0.4,0.4,1,0.6,1.5,0.2c-0.2-0.2-0.7-0.5-1.1-0.2c-0.2-0.2-0.5-0.4-0.6-0.6c0-0.1-0.1-0.4,0-0.7
		c0.5,0.1,0.8-0.5,0.8-0.8C314,18.4,313.6,18.7,313.5,19.2"/>
	<path class="st2" d="M313.1,18.9c0.1,0.2,0.1,0.3,0.2,0.5c0-0.1,0-0.3,0.1-0.4c0,0,0-0.1-0.1-0.2c-0.2-0.4-0.3-0.7-0.3-0.9
		c0.6-0.2,0.6-0.8,0.5-1.2C312.8,17.2,312.5,17.8,313.1,18.9"/>
	<path class="st2" d="M313.5,18.3c0.3,0,0.6-0.3,0.5-0.6C313.6,17.8,313.5,18.1,313.5,18.3"/>
	<path class="st2" d="M313.9,26c-0.5-0.1-0.8,0.1-0.9,0.4c-0.1,0-0.2,0.1-0.3,0.2c0.3,0.5,0.8,0.7,1.3,0.6c-0.2-0.4-0.4-0.6-0.6-0.7
		C313.6,26.4,313.8,26.2,313.9,26"/>
	<path class="st2" d="M313.7,25.3c0,0.4,0.5,0.5,1,0.4C314.5,25.4,314.1,25.3,313.7,25.3"/>
	<path class="st2" d="M314.7,24.1c0.1-0.1,0.1-0.1,0.1-0.2c-0.4,0-0.7,0.2-0.6,0.4c0.3,0.3,0.7,0.4,1,0.2
		C315.1,24.3,314.9,24.1,314.7,24.1"/>
	<path class="st2" d="M314.9,18.8c-0.3,0.1-0.5,0.3-0.4,0.4c-0.1,0-0.1,0.1-0.1,0.2c0.3,0.2,0.7,0.2,0.9,0c-0.2-0.2-0.4-0.2-0.5-0.2
		C314.8,19.1,314.9,18.9,314.9,18.8"/>
	<path class="st2" d="M312.3,28.4c-0.1-0.2-0.5-0.3-0.7-0.1C311.8,28.5,312.1,28.5,312.3,28.4"/>
	<path class="st2" d="M314.1,19.9c0.2,0.2,0.5,0.2,0.7,0C314.7,19.7,314.3,19.7,314.1,19.9"/>
	<path class="st2" d="M315,22.7c-0.1-0.2-0.4-0.3-0.6-0.2C314.5,22.7,314.8,22.8,315,22.7"/>
	<path class="st2" d="M314.5,26.6c-0.2-0.2-0.5-0.3-0.7,0C314,26.8,314.4,26.7,314.5,26.6"/>
	<path class="st2" d="M312.5,27.4c0.1,0.3,0.5,0.3,0.7,0.3C313.1,27.4,312.8,27.3,312.5,27.4"/>
	<path class="st2" d="M315.1,25.3c-0.1-0.2-0.4-0.2-0.6,0C314.7,25.4,314.9,25.4,315.1,25.3"/>
	<path class="st2" d="M314.7,22.1c0.3,0.3,0.7,0.2,0.9,0C315.4,21.9,315,21.8,314.7,22.1"/>
	<path class="st2" d="M312.8,27.2c0-0.2-0.2-0.3-0.3-0.4c-0.4-0.2-1,0-1.4,0.1c-0.3,0.1-0.6,0.2-1,0.3c0.6,0.5,0.7,0.6,1,0.6
		c-0.1-0.1-0.2-0.2-0.2-0.3c0.2-0.1,0.4-0.2,0.4-0.2c0,0.4,0.1,1.1-0.5,0.9c-0.1,0.3-0.2,0.7,0.9,0.7c-0.1-0.3-0.3-0.5-0.6-0.6
		c0.3-0.1,0.3-0.3,0.3-0.6c0.1,0.1,0.3,0.2,0.5,0.2c0.3,0,0.4-0.2,0.4-0.2c-0.1,0-0.2-0.1-0.3,0c0.1-0.1,0.2-0.3,0.1-0.5
		c-0.3,0-0.6,0.3-0.5,0.6c-0.2-0.1-0.2-0.3-0.1-0.5C311.8,26.8,312.5,26.9,312.8,27.2"/>
	<path class="st2" d="M313.4,21.9c0-2.7-1.6-4.9-3.6-4.9c-2,0-3.6,2.2-3.6,4.9c0,2.7,1.6,4.9,3.6,4.9
		C311.7,26.8,313.4,24.6,313.4,21.9 M309.7,26.5c-1.8,0-3.3-2.1-3.3-4.6c0-2.5,1.5-4.6,3.3-4.6c1.8,0,3.3,2.1,3.3,4.6
		C313,24.4,311.5,26.5,309.7,26.5"/>
	<path class="st2" d="M309.7,17.6c-0.3,0-0.6,0.1-0.9,0.2h1.8C310.3,17.7,310,17.6,309.7,17.6"/>
	<path class="st2" d="M311.1,18.1h-2.7c-0.1,0.1-0.2,0.1-0.2,0.2h3.2C311.2,18.2,311.2,18.1,311.1,18.1"/>
	<path class="st2" d="M311.6,18.6h-3.8c-0.1,0.1-0.1,0.1-0.2,0.2h4.1C311.7,18.7,311.6,18.6,311.6,18.6"/>
	<path class="st2" d="M306.7,22c0,0.1,0,0.1,0,0.2h5.9c0-0.1,0-0.1,0-0.2H306.7z"/>
	<path class="st2" d="M308.3,25.6h2.7c0.1-0.1,0.2-0.1,0.2-0.2h-3.2C308.2,25.5,308.2,25.6,308.3,25.6"/>
	<path class="st2" d="M309.7,26.1c0.3,0,0.6-0.1,0.9-0.2h-1.8C309.1,26.1,309.4,26.1,309.7,26.1"/>
	<path class="st2" d="M308,19.1h-0.5c0,0.1-0.1,0.1-0.1,0.2h0.5C307.9,19.2,308,19.1,308,19.1"/>
	<path class="st2" d="M311.5,19.3h0.5c0-0.1-0.1-0.1-0.1-0.2h-0.5C311.4,19.1,311.5,19.2,311.5,19.3"/>
	<path class="st2" d="M307.7,19.5h-0.5c0,0.1-0.1,0.1-0.1,0.2h0.6C307.7,19.7,307.7,19.6,307.7,19.5"/>
	<path class="st2" d="M311.7,19.8h0.6c0-0.1-0.1-0.1-0.1-0.2h-0.5C311.7,19.6,311.7,19.7,311.7,19.8"/>
	<path class="st2" d="M307.7,20.1c0,0,0-0.1,0-0.1H307c0,0.1,0,0.1-0.1,0.2h0.4C307.4,20.2,307.6,20.1,307.7,20.1"/>
	<path class="st2" d="M311.7,20.1c0.1,0,0.2,0,0.3,0.1h0.4c0-0.1,0-0.1-0.1-0.2h-0.6C311.7,20.1,311.7,20.1,311.7,20.1"/>
	<path class="st2" d="M307.1,20.5h-0.2c0,0.1,0,0.1,0,0.2h0.2C307,20.7,307,20.6,307.1,20.5"/>
	<path class="st2" d="M312.4,20.7h0.2c0-0.1,0-0.1,0-0.2h-0.2C312.4,20.6,312.4,20.7,312.4,20.7"/>
	<path class="st2" d="M307.1,21.2c0,0,0-0.1,0-0.1h-0.2c0,0.1,0,0.1,0,0.2L307.1,21.2C307.1,21.2,307.1,21.2,307.1,21.2"/>
	<path class="st2" d="M312.3,21.2C312.3,21.2,312.3,21.2,312.3,21.2l0.3,0.1c0-0.1,0-0.1,0-0.2h-0.2
		C312.4,21.1,312.4,21.1,312.3,21.2"/>
	<path class="st2" d="M310.8,19.1h-2.2c0.1,0.1,0.1,0.1,0.1,0.2h1.9C310.7,19.2,310.8,19.1,310.8,19.1"/>
	<path class="st2" d="M310.5,19.5h-1.6c0,0.1,0,0.1,0.1,0.2h1.5C310.5,19.7,310.5,19.6,310.5,19.5"/>
	<path class="st2" d="M310.5,20.1c0,0,0-0.1,0-0.1H309c0,0,0,0.1,0,0.1c0.1,0,0.2,0,0.3,0.1h0.8C310.2,20.2,310.3,20.1,310.5,20.1"
		/>
	<path class="st2" d="M309.8,20.7c0-0.1,0-0.1,0.1-0.2h-0.3c0,0.1,0.1,0.1,0.1,0.2H309.8z"/>
	<path class="st2" d="M309.9,21.2c0,0-0.1-0.1-0.1-0.2h-0.2c0,0.1-0.1,0.2-0.1,0.2H309.9z"/>
	<path class="st2" d="M309.4,22.5h-2.6c0,0.1,0,0.1,0,0.2h2.5C309.3,22.6,309.4,22.6,309.4,22.5"/>
	<path class="st2" d="M310.1,22.7h2.5c0-0.1,0-0.1,0-0.2H310C310.1,22.6,310.1,22.6,310.1,22.7"/>
	<path class="st2" d="M309.1,23h-2.3c0,0.1,0,0.1,0,0.2h2.2C309.1,23.1,309.1,23.1,309.1,23"/>
	<path class="st2" d="M310.3,23.2h2.2c0-0.1,0-0.1,0-0.2h-2.3C310.3,23.1,310.3,23.1,310.3,23.2"/>
	<path class="st2" d="M309.1,23.6c0,0,0-0.1,0-0.1H307c0,0.1,0,0.1,0.1,0.2h1.7C308.8,23.6,309,23.6,309.1,23.6"/>
	<path class="st2" d="M310.3,23.6c0.1,0,0.2,0,0.3,0.1h1.7c0-0.1,0-0.1,0.1-0.2h-2.1C310.4,23.5,310.3,23.5,310.3,23.6"/>
	<path class="st2" d="M308.5,24h-1.3c0,0.1,0.1,0.1,0.1,0.2h1.2C308.4,24.1,308.4,24,308.5,24"/>
	<path class="st2" d="M311,24.2h1.2c0-0.1,0.1-0.1,0.1-0.2h-1.3C311,24,311,24.1,311,24.2"/>
	<path class="st2" d="M308.9,24.7h0.4c0-0.1-0.1-0.2-0.2-0.2S308.9,24.6,308.9,24.7"/>
	<path class="st2" d="M310.1,24.7h0.4c0-0.1-0.1-0.2-0.2-0.2C310.2,24.5,310.2,24.6,310.1,24.7"/>
	<path class="st2" d="M307.5,21.2h0.4c0-0.1-0.1-0.2-0.2-0.2C307.6,21.1,307.5,21.1,307.5,21.2"/>
	<path class="st2" d="M308.9,21.1c-0.1,0-0.2,0.1-0.2,0.2h0.4C309.1,21.1,309,21.1,308.9,21.1"/>
	<path class="st2" d="M311.7,21.1c-0.1,0-0.2,0.1-0.2,0.2h0.4C311.9,21.1,311.8,21.1,311.7,21.1"/>
	<path class="st2" d="M310.5,21.1c-0.1,0-0.2,0.1-0.2,0.2h0.4C310.6,21.1,310.6,21.1,310.5,21.1"/>
	<path class="st2" d="M308.4,24.5h-1.1c0,0.1,0.1,0.1,0.1,0.2h1C308.5,24.6,308.4,24.5,308.4,24.5"/>
	<path class="st2" d="M310.9,24.7h1c0-0.1,0.1-0.1,0.1-0.2H311C311,24.5,311,24.6,310.9,24.7"/>
	<path class="st2" d="M308.9,20.8c0.2,0,0.3,0.1,0.4,0.3c0-0.1,0-0.1,0-0.2c0-0.3-0.2-0.5-0.5-0.5c-0.1,0-0.2,0-0.2,0.1l-0.2,0.2
		l-0.1,0c0,0,0.3-0.4,0.3-0.7c0-0.3-0.2-0.7-0.4-0.9c-0.3,0.2-0.4,0.6-0.4,0.9c0,0.3,0.2,0.7,0.2,0.7l-0.1,0l-0.2-0.2
		c-0.1,0-0.1-0.1-0.2-0.1c-0.3,0-0.5,0.2-0.5,0.5c0,0.1,0,0.1,0,0.2c0.1-0.1,0.2-0.3,0.4-0.3c0.3,0,0.4,0.2,0.4,0.5
		c0,0.1,0,0.2,0,0.2v0c0,0.1-0.1,0.1-0.1,0.2h0.6c0-0.1-0.1-0.1-0.1-0.2v0c0-0.1,0-0.2,0-0.2C308.5,21.1,308.7,20.8,308.9,20.8
		 M308.3,19.3c0.3,0.4,0.3,0.8,0,1.2V19.3z"/>
	<path class="st2" d="M311.7,20.8c0.2,0,0.3,0.1,0.4,0.3c0-0.1,0-0.1,0-0.2c0-0.3-0.2-0.5-0.5-0.5c-0.1,0-0.2,0-0.2,0.1l-0.2,0.2
		l-0.1,0c0,0,0.2-0.4,0.2-0.7c0-0.3-0.2-0.7-0.4-0.9c-0.3,0.2-0.4,0.6-0.4,0.9c0,0.3,0.2,0.7,0.2,0.7l-0.1,0l-0.2-0.2
		c-0.1,0-0.1-0.1-0.2-0.1c-0.3,0-0.5,0.2-0.5,0.5c0,0.1,0,0.1,0,0.2c0.1-0.1,0.2-0.3,0.4-0.3c0.3,0,0.4,0.2,0.4,0.5h0
		c0,0.1,0,0.2,0,0.2l0,0c0,0.1-0.1,0.1-0.1,0.2h0.6c0-0.1-0.1-0.1-0.1-0.2v0c0-0.1,0-0.2,0-0.2C311.3,21.1,311.5,20.8,311.7,20.8
		 M311.1,19.3c0.3,0.4,0.3,0.8,0,1.2V19.3z"/>
	<path class="st2" d="M309.7,22.5c-0.3,0.2-0.4,0.6-0.4,0.9c0,0.3,0.2,0.7,0.2,0.7l-0.1,0l-0.2-0.2c-0.1,0-0.1-0.1-0.2-0.1
		c-0.3,0-0.5,0.2-0.5,0.5c0,0.1,0,0.1,0,0.2c0.1-0.1,0.2-0.3,0.4-0.3c0.3,0,0.4,0.2,0.4,0.5c0,0.2-0.1,0.3-0.1,0.4h0.6
		c-0.1-0.1-0.1-0.3-0.1-0.4c0-0.2,0.2-0.5,0.4-0.5c0.2,0,0.3,0.1,0.4,0.3c0-0.1,0-0.1,0-0.2c0-0.3-0.2-0.5-0.5-0.5
		c-0.1,0-0.2,0-0.2,0.1l-0.2,0.2l-0.1,0c0,0,0.2-0.4,0.2-0.7C310.1,23.1,310,22.8,309.7,22.5 M309.7,24v-1.2
		C310,23.2,310,23.5,309.7,24"/>
	<path class="st2" d="M309.2,25h-1.6c0.1,0.1,0.1,0.1,0.2,0.2h1.3C309.2,25.1,309.2,25,309.2,25"/>
	<path class="st2" d="M310.3,25.2h1.3c0.1-0.1,0.1-0.1,0.2-0.2h-1.6C310.2,25,310.3,25.1,310.3,25.2"/>
	<path class="st2" d="M310,13.6c0-0.2-0.1-0.3-0.3-0.3c-0.2,0-0.3,0.1-0.3,0.3c0,0.2,0.1,0.3,0.3,0.3C309.9,13.9,310,13.7,310,13.6"
		/>
	<polygon class="st2" points="310,16.4 310.1,16.5 310.2,16.2 310.1,16 309.3,16 309.2,16.2 309.3,16.5 309.4,16.4 	"/>
	<polygon class="st2" points="308.8,16.5 308.9,16.6 308.9,16.3 308.7,16.1 308,16.4 308,16.7 308.2,16.8 308.2,16.7 	"/>
	<polygon class="st2" points="311.2,16.7 311.2,16.8 311.4,16.7 311.4,16.4 310.7,16.1 310.5,16.3 310.5,16.6 310.7,16.5 	"/>
	<path class="st2" d="M307.8,21.5h-1.1c0,0.1,0,0.1,0,0.2h1C307.8,21.7,307.8,21.6,307.8,21.5"/>
	<path class="st2" d="M311.7,21.7h1c0-0.1,0-0.1,0-0.2h-1.1C311.6,21.6,311.6,21.7,311.7,21.7"/>
	<path class="st2" d="M310.5,21.7c0-0.1,0.1-0.1,0.1-0.2h-1.8c0,0.1,0.1,0.1,0.1,0.2H310.5z"/>
	<path class="st2" d="M311.9,15l-0.9-0.4l-0.2,0.4c-0.1,0.1-0.2,0.1-0.3,0.1c-0.1,0-0.2-0.1-0.1-0.3l0.1-0.4l-0.8-0.3l-0.8,0.3
		l0.1,0.4c0,0.1-0.1,0.2-0.1,0.3c-0.1,0-0.2,0-0.3-0.1l-0.2-0.4l-0.9,0.4l0.1,0.4c0,0.1,0,0.2-0.1,0.3c-0.1,0-0.2,0-0.3-0.1
		l-0.2-0.3l-0.5,0.2c-0.1-0.2-0.3-0.1-0.3-0.1l0.8,1.6c0.2,0.5,0.1,0.8,0.1,0.9c0.3-0.4,0.8-0.8,0.9-0.8l-0.5-0.3c0,0.1,0,0.1,0,0.2
		l-0.2,0.1l-0.3-0.4c0.7-0.5,1.6-0.8,2.5-0.8c0-0.1-0.1-0.2-0.3-0.2c-0.8,0.1-1.6,0.4-2.3,0.9l-0.4-0.7l0.3-0.1
		c0.2,0.3,0.4,0.3,0.6,0.2c0.2-0.1,0.3-0.3,0.3-0.6l0.5-0.2c0.2,0.3,0.4,0.3,0.6,0.3c0.2-0.1,0.3-0.3,0.3-0.6c0,0,0.1-0.1,0.3-0.1
		c0.1,0.5,0.2,0.8,0.2,0.8s0.2-0.3,0.2-0.8c0.1,0.1,0.3,0.1,0.3,0.1c-0.1,0.3,0,0.5,0.3,0.6c0.2,0.1,0.4,0.1,0.6-0.3l0.5,0.2
		c-0.1,0.3,0,0.5,0.3,0.6c0.2,0.1,0.5,0.1,0.6-0.2l0.3,0.1l-0.4,0.7c-0.7-0.5-1.5-0.8-2.3-0.9c-0.2,0-0.3,0.1-0.3,0.2
		c0.9,0,1.8,0.3,2.5,0.8l-0.2,0.4l-0.2-0.1c0-0.1,0-0.2,0-0.2l-0.5,0.3c0.1,0.1,0.7,0.4,0.9,0.8c0-0.1-0.1-0.5,0.1-0.9l0.8-1.6
		c-0.1,0-0.2-0.1-0.3,0.1l-0.5-0.2l-0.2,0.3c-0.1,0.1-0.2,0.1-0.3,0.1c-0.1,0-0.2-0.1-0.1-0.3L311.9,15z"/>
	<path class="st2" d="M299.2,21.5c0,0.1,0.1,0.2,0.2,0.2c0.1,0,0.2-0.1,0.2-0.2c0-0.1-0.1-0.2-0.2-0.2
		C299.3,21.3,299.2,21.4,299.2,21.5"/>
	<path class="st2" d="M298.9,22.7L298.9,22.7l0.1,0.6l0,0l0.1,0v0c0,0,0-0.1,0-0.2l0.5-0.1l0,0.3c0,0.1,0,0.1,0.1,0.1l0.1,0
		l-0.1-0.4l0.4-0.1l0.1,0.4c-0.1,0-0.1,0-0.2,0.1l0,0l0,0.1l0,0c0,0,0.1,0,0.2,0c0,0,0.1,0,0.1,0l0,0l-0.1-0.9h0
		c-0.1,0-0.1,0-0.1,0.2l-1,0.1C299,22.7,299,22.7,298.9,22.7"/>
	<path class="st2" d="M299.5,24.8C299.5,24.8,299.5,24.8,299.5,24.8c0.2,0.1,0.3,0.1,0.5,0.1c0.2-0.1,0.3-0.2,0.4-0.3
		c0.1-0.1,0.1-0.3,0-0.5c0-0.2-0.1-0.3-0.3-0.4l0,0c-0.2-0.1-0.3-0.1-0.5,0c-0.2,0.1-0.3,0.2-0.4,0.3c-0.1,0.1-0.1,0.3,0,0.5
		C299.3,24.6,299.4,24.7,299.5,24.8 M299.4,24.1c0.1-0.1,0.2-0.2,0.3-0.2c0.2,0,0.3,0,0.4,0c0,0,0,0,0,0c0.1,0,0.1,0.1,0.2,0.2
		c0,0.1,0,0.2-0.1,0.3c-0.1,0.1-0.2,0.2-0.3,0.2c-0.2,0-0.3,0-0.4,0c-0.1,0-0.2-0.1-0.2-0.3C299.3,24.3,299.3,24.2,299.4,24.1"/>
	<path class="st2" d="M300.8,25.3L300.8,25.3L300.8,25.3l-0.1-0.5l0,0c-0.1,0-0.1,0.1,0,0.2l-1,0.4c-0.1-0.1-0.1-0.2-0.2-0.1l0,0
		l0.2,0.5l0.1,0l0,0c0,0,0-0.1,0-0.2l1-0.4C300.8,25.2,300.8,25.3,300.8,25.3"/>
	<path class="st2" d="M301.1,27.1c0.1,0,0.2,0,0.3,0c0.1-0.1,0.2-0.1,0.2-0.2c0-0.1,0-0.2-0.1-0.3c0,0,0-0.1-0.1-0.1
		c0-0.1-0.1-0.1-0.1-0.2l-0.1-0.2l0,0c-0.1,0-0.1,0.1,0,0.2l-0.9,0.5c-0.1-0.1-0.1-0.1-0.2-0.1l0,0l0.3,0.5l0,0l0.1,0l0,0
		c0,0,0-0.1-0.1-0.2l0.4-0.2C300.9,27,301,27.1,301.1,27.1 M301.3,26.4c0,0,0.1,0.1,0.1,0.1c0,0.1,0.1,0.1,0,0.2s-0.1,0.1-0.1,0.2
		c-0.1,0-0.1,0.1-0.2,0c-0.1,0-0.2-0.1-0.2-0.3L301.3,26.4z"/>
	<path class="st2" d="M301.4,28.5c0.2,0.1,0.4,0.1,0.6-0.1l0.5-0.4c0.1,0.1,0.1,0.1,0.2,0.1l0,0l-0.3-0.4l-0.1,0.1l0,0
		c0,0,0.1,0.1,0.1,0.2l-0.5,0.4c-0.2,0.2-0.4,0.2-0.5,0c-0.2-0.2-0.1-0.4,0.1-0.5l0.5-0.4c0,0,0.1,0.1,0.1,0.1l0,0l0.1-0.1l-0.3-0.4
		l0,0c-0.1,0,0,0.1,0,0.2l-0.5,0.4c-0.1,0.1-0.2,0.2-0.2,0.4c0,0.1,0,0.3,0.1,0.4C301.2,28.4,301.3,28.5,301.4,28.5"/>
	<path class="st2" d="M302.4,29.6c0.2,0.1,0.3,0.1,0.5-0.1c0.1-0.1,0.1-0.3,0-0.4c0.1,0,0.2,0,0.3-0.1c0.1-0.1,0.2-0.3-0.1-0.5
		l-0.4-0.4l0,0c-0.1,0.1,0,0.1,0,0.2l-0.7,0.7c-0.1-0.1-0.1-0.1-0.2,0l0,0l0.4,0.4C302.3,29.5,302.4,29.6,302.4,29.6 M302.9,28.5
		l0.1,0.1c0.1,0.1,0.1,0.2,0,0.3c-0.1,0.1-0.2,0.1-0.3,0l-0.1-0.1L302.9,28.5z M302.2,29.2l0.3-0.3l0.2,0.1c0.1,0.1,0.1,0.2,0,0.4
		c-0.1,0.1-0.2,0.1-0.4,0L302.2,29.2C302.2,29.3,302.2,29.2,302.2,29.2"/>
	<path class="st2" d="M304,29.4L304,29.4L304,29.4l-0.4-0.4l0,0l0,0c0,0.1,0,0.1,0.1,0.2l-0.6,0.8c-0.1-0.1-0.2-0.1-0.2,0l0,0
		l0.8,0.6l0,0l0,0c0,0,0.1,0,0.1-0.1c0-0.1,0.1-0.2,0.1-0.2l0,0l-0.1,0l0,0c-0.1,0-0.1,0.1-0.2,0.1l-0.3-0.3l0.6-0.8
		C303.9,29.3,304,29.3,304,29.4"/>
	<path class="st2" d="M304.9,30L304.9,30L304.9,30l-0.4-0.4l0,0l0,0c0,0.1,0,0.1,0.1,0.2l-0.5,0.9c-0.1-0.1-0.2-0.1-0.2,0l0,0
		l0.5,0.3l0,0l0-0.1l0,0c0,0-0.1-0.1-0.1-0.1l0.5-0.9C304.8,29.9,304.9,29.9,304.9,30"/>
	<path class="st2" d="M306,31.1c0.1-0.2,0.1-0.4,0-0.5c-0.1-0.1-0.2-0.3-0.3-0.3c-0.3-0.2-0.7,0-0.9,0.3c-0.1,0.2-0.1,0.4,0,0.5
		c0.1,0.1,0.2,0.3,0.3,0.3c0,0,0,0,0,0c0.1,0.3,0.2,0.5,0.4,0.6c0,0,0,0,0,0c0.2,0.1,0.3,0,0.3,0l0,0l0-0.1h0c0,0,0,0,0,0
		c0,0-0.1,0-0.2-0.1c-0.2-0.1-0.3-0.2-0.4-0.4C305.6,31.5,305.8,31.4,306,31.1 M305.2,31.3c-0.1-0.1-0.2-0.1-0.2-0.3
		c0-0.1,0-0.3,0.1-0.4c0.1-0.3,0.4-0.4,0.6-0.3c0,0,0,0,0,0c0.2,0.1,0.3,0.4,0.1,0.6C305.6,31.3,305.4,31.4,305.2,31.3"/>
	<path class="st2" d="M306.5,32c0,0,0.1,0.1,0.2,0.1c0.1,0,0.3,0,0.4,0s0.2-0.2,0.2-0.3l0.2-0.6c0.1,0,0.2,0,0.2-0.1l0,0l-0.5-0.1
		l0,0l0,0.1l0,0c0,0,0.1,0.1,0.2,0.1l-0.2,0.6c0,0.1-0.1,0.2-0.2,0.3c-0.1,0.1-0.2,0.1-0.3,0c-0.1,0-0.2-0.1-0.2-0.2
		c0-0.1,0-0.2,0-0.3l0.2-0.6c0.1,0,0.1,0,0.2,0h0l0-0.1l-0.5-0.2l0,0l0,0c0,0.1,0,0.1,0.1,0.2l-0.2,0.6c-0.1,0.2,0,0.3,0,0.4
		C306.3,31.9,306.4,31.9,306.5,32"/>
	<path class="st2" d="M308.5,31.2c0,0.1,0,0.1,0,0.2l0,0l0.1,0l0,0c0,0,0.1-0.1,0.1-0.2c0,0,0-0.1,0-0.1v0l-0.9-0.1l0,0l0,0
		c0,0.1,0,0.1,0.1,0.1l-0.2,1c-0.1,0-0.2,0-0.2,0.1l0,0l0.9,0.1h0l0,0c0,0,0-0.1,0-0.1c0-0.1,0-0.2,0-0.2l0,0l-0.1,0l0,0
		c0,0.1-0.1,0.1-0.1,0.2l-0.4-0.1l0.1-0.5l0.3,0c0.1,0,0.1,0,0.1,0l0,0l0-0.1l-0.4-0.1l0.1-0.4L308.5,31.2z"/>
	<path class="st2" d="M309.5,31.9L309.5,31.9l0,0.1h0.3c0.1,0,0.1,0,0.2,0l0,0v-0.1h-0.3C309.5,31.8,309.5,31.8,309.5,31.9"/>
	<path class="st2" d="M310.8,32.4L310.8,32.4l0.5-0.1h0l0-0.1l0,0c0,0-0.1,0-0.2,0l-0.1-0.8l0,0l0,0c0,0-0.1,0-0.1,0
		c-0.1,0-0.2,0.1-0.2,0.1l0,0l0,0.1l0,0c0,0,0.1,0,0.2,0l0.1,0.7C310.9,32.3,310.8,32.3,310.8,32.4"/>
	<path class="st2" d="M311.6,32c0,0.1,0.1,0.2,0.1,0.2c0,0,0,0,0,0c0.1,0,0.2,0.1,0.3,0c0.2-0.1,0.4-0.2,0.3-0.4
		c0-0.2-0.2-0.3-0.3-0.3c0.1-0.1,0.2-0.2,0.2-0.3c0-0.2-0.2-0.3-0.4-0.2c-0.1,0-0.2,0.1-0.3,0.2c-0.1,0.1-0.1,0.2-0.1,0.3
		c0,0.2,0.2,0.3,0.3,0.3C311.6,31.7,311.5,31.8,311.6,32 M311.6,31.2c0-0.1,0-0.1,0-0.2c0,0,0.1-0.1,0.1-0.1c0.1,0,0.1,0,0.1,0
		c0,0,0,0,0,0c0,0,0.1,0.1,0.1,0.1c0,0.1,0,0.2-0.1,0.3l0,0C311.8,31.4,311.7,31.4,311.6,31.2 M311.8,31.6L311.8,31.6
		c0.2,0,0.3,0.1,0.4,0.2c0,0.1,0,0.2-0.2,0.2c-0.1,0-0.3,0-0.3-0.2C311.7,31.8,311.8,31.7,311.8,31.6"/>
	<path class="st2" d="M312.7,32L312.7,32l0.5-0.2l0,0l0-0.1h0c0,0-0.1,0-0.2,0l-0.3-0.8l0,0c0,0-0.1,0-0.1,0c-0.1,0-0.2,0.1-0.2,0.1
		l0,0l0,0.1l0,0c0,0,0.1,0,0.2,0l0.2,0.7C312.7,31.9,312.7,31.9,312.7,32"/>
	<path class="st2" d="M313.5,31.6C313.5,31.6,313.5,31.6,313.5,31.6c0.1,0.1,0.3,0.1,0.4,0c0.1,0,0.2-0.1,0.2-0.3c0-0.1,0-0.2,0-0.3
		c0-0.1-0.1-0.2-0.2-0.2c-0.1,0-0.2,0-0.3,0c-0.1,0.1-0.2,0.2-0.2,0.3c-0.1-0.3,0.1-0.6,0.3-0.8l0,0l0-0.1l0,0
		c-0.4,0.2-0.6,0.6-0.4,1.1C313.3,31.4,313.4,31.5,313.5,31.6 M313.6,30.9c0.1,0,0.1,0,0.2,0c0.1,0,0.1,0.1,0.1,0.2
		c0,0.1,0,0.2,0,0.2c0,0.1-0.1,0.1-0.1,0.1c-0.1,0-0.1,0-0.2,0c0,0,0,0,0,0c-0.1-0.1-0.2-0.3-0.2-0.3
		C313.4,31.1,313.5,31,313.6,30.9"/>
	<path class="st2" d="M315,30.6c0.1,0,0.2-0.1,0.2-0.2c0-0.1-0.1-0.2-0.2-0.2c-0.1,0-0.2,0.1-0.2,0.2
		C314.8,30.5,314.9,30.6,315,30.6"/>
	<path class="st2" d="M299.2,19.2L299.2,19.2L299.2,19.2c0,0-0.1,0.2-0.1,0.3c-0.1,0.3,0.1,0.6,0.3,0.7c0.1,0,0.2,0.1,0.3,0.1
		c0.4,0.1,0.7-0.1,0.7-0.5c0-0.3-0.1-0.4-0.1-0.5l0,0h0c0,0-0.1,0-0.1,0l0,0l0,0c0,0,0.1,0.2,0.1,0.3c0,0.1-0.1,0.2-0.2,0.3
		c-0.1,0.1-0.2,0.1-0.4,0c-0.2,0-0.3-0.1-0.4-0.2c-0.1-0.1-0.1-0.2-0.1-0.3c0-0.1,0-0.1,0.1-0.2c0.1,0,0.2,0,0.2,0h0l0-0.1l0,0
		C299.4,19.3,299.4,19.3,299.2,19.2C299.2,19.2,299.2,19.2,299.2,19.2"/>
	<path class="st2" d="M299.6,18.2c-0.1,0-0.2,0-0.2,0.1l0,0.1l1,0.7c0,0.1,0,0.1,0,0.2c0,0,0,0,0,0l0,0l0.1-0.4l0,0l-0.1,0l0,0
		c0,0-0.1,0.1-0.1,0.2l-0.3-0.2l0.1-0.4l0.3,0c0,0,0,0.1,0,0.2v0l0.1,0l0.2-0.5l0,0l0,0c-0.1,0-0.1,0-0.1,0.1L299.6,18.2L299.6,18.2
		z M300,18.8l-0.5-0.4l0.6,0L300,18.8z"/>
	<path class="st2" d="M300,17L300,17l-0.3,0.5l0,0l0,0c0.1,0,0.1,0,0.2-0.1l0.9,0.4c0,0.1,0,0.2,0,0.2l0,0l0.2-0.5l0,0l-0.1,0l0,0
		c0,0-0.1,0.1-0.1,0.1l-1-0.4C300,17.2,300,17.1,300,17L300,17z"/>
	<path class="st2" d="M300.5,16.3c0.1,0,0.2,0,0.2,0h0l0-0.1l0,0c-0.1-0.1-0.2-0.2-0.3-0.2h0l0,0c0,0-0.1,0.1-0.2,0.3
		c-0.1,0.2-0.1,0.4,0.1,0.5c0,0,0,0,0,0c0.1,0.1,0.3,0.1,0.4,0c0.1,0,0.1-0.1,0.1-0.1c0,0,0,0,0.1-0.1c0.1-0.1,0.2-0.1,0.3,0
		c0,0,0,0,0,0c0.1,0.1,0.1,0.2,0.1,0.3c0,0.1-0.1,0.1-0.2,0.2c-0.1,0-0.2,0-0.2-0.1h0l0,0.1l0,0c0,0.1,0.1,0.1,0.2,0.2
		c0,0,0,0,0.1,0h0l0,0c0,0,0.2-0.1,0.3-0.3c0.1-0.3,0.1-0.5-0.1-0.6c0,0,0,0,0,0c-0.2-0.1-0.3-0.1-0.5,0.1c0,0,0,0,0,0
		c0,0-0.1,0.1-0.1,0.1c-0.1,0.1-0.2,0.1-0.2,0c0,0,0,0,0,0c-0.1-0.1-0.1-0.2,0-0.3C300.4,16.3,300.4,16.3,300.5,16.3"/>
	<path class="st2" d="M301.1,15L301.1,15L301.1,15c0,0-0.1,0.1-0.2,0.2c-0.2,0.2-0.2,0.4,0,0.6c0.1,0.1,0.3,0.1,0.4,0
		c0.1,0,0.1-0.1,0.1-0.1c0,0,0.1,0,0.1-0.1c0.1-0.1,0.2-0.1,0.3,0c0.1,0,0.1,0.1,0.1,0.1c0,0.1,0,0.1-0.1,0.2
		c-0.1,0.1-0.1,0.1-0.2,0.2c-0.1,0-0.1-0.1-0.2-0.1h0l0,0.1l0,0c0,0.1,0.1,0.2,0.2,0.2c0,0,0,0,0,0l0,0l0,0c0,0,0.2-0.1,0.3-0.3
		c0.2-0.2,0.2-0.5,0-0.6c-0.1-0.1-0.3-0.1-0.5,0c0,0,0,0,0,0c0,0-0.1,0.1-0.1,0.1c-0.1,0.1-0.2,0.1-0.2,0c-0.1-0.1-0.1-0.2,0-0.3
		c0-0.1,0.1-0.1,0.1-0.1c0.1,0,0.2,0.1,0.2,0.1l0,0l0-0.1l0,0C301.3,15.1,301.2,15.1,301.1,15"/>
	<path class="st2" d="M302,14.3c0.1,0,0.1,0.1,0.2,0.1l0,0l0,0l0,0c0,0-0.1-0.1-0.1-0.2c0,0-0.1,0-0.1,0l0,0l-0.6,0.7l0,0l0,0
		c0.1,0.1,0.1,0,0.2,0l0.8,0.7c-0.1,0.1-0.1,0.2,0,0.2l0,0l0.6-0.7l0,0c0,0,0-0.1-0.1-0.1c-0.1,0-0.1-0.1-0.2-0.1h0l0,0.1l0,0
		c0,0.1,0.1,0.1,0.1,0.2l-0.3,0.3l-0.4-0.3l0.2-0.2c0-0.1,0-0.1,0-0.1l-0.1,0l-0.3,0.3l-0.3-0.3L302,14.3
		C302,14.3,302,14.3,302,14.3"/>
	<path class="st2" d="M303.4,14.4L303.4,14.4l0.5-0.4c0.2-0.1,0.3-0.3,0.3-0.5c0-0.2,0-0.3-0.2-0.5c-0.2-0.3-0.6-0.3-0.9-0.1
		l-0.5,0.4l0,0c0,0.1,0.1,0.1,0.2,0l0.6,0.8C303.4,14.3,303.4,14.3,303.4,14.4 M303,13.3l0.2-0.1c0.3-0.2,0.5-0.2,0.7,0.1
		c0.1,0.1,0.2,0.3,0.2,0.4c0,0.1-0.1,0.2-0.2,0.3l-0.1,0.1c0,0,0,0-0.1,0L303,13.3z"/>
	<path class="st2" d="M304.6,13.6L304.6,13.6l0.8-0.5l0,0l0,0c0,0,0-0.1,0-0.1c0-0.1-0.1-0.1-0.1-0.2l0,0l-0.1,0l0,0
		c0,0.1,0,0.1,0,0.2l-0.4,0.2l-0.2-0.4l0.3-0.2c0.1,0,0.1-0.1,0.1-0.1h-0.1l-0.3,0.1l-0.1-0.1h-0.2l0.4,0.8
		C304.5,13.5,304.5,13.5,304.6,13.6"/>
	<path class="st2" d="M306.1,12.6c0,0.1-0.1,0.1-0.2,0.1c-0.1,0-0.2,0-0.2,0c0-0.1-0.1-0.1-0.1-0.2h0l0,0v0c0,0.1,0,0.2,0.1,0.3l0,0
		h0c0,0,0.2,0,0.4-0.1c0.1-0.1,0.2-0.1,0.3-0.2c0,0,0,0,0-0.1L306.1,12.6C306.1,12.6,306.1,12.6,306.1,12.6"/>
	<path class="st2" d="M317.3,27.4L317.3,27.4l-0.3,0.4l0.1,0.1l0,0c0,0,0.1-0.1,0.1-0.1l0.2,0.2v-0.2l-0.1-0.1
		C317.3,27.5,317.3,27.5,317.3,27.4"/>
	<path class="st2" d="M317.3,29.3L317.3,29.3L317.3,29.3l0-0.2C317.3,29.2,317.3,29.3,317.3,29.3"/>
	<path class="st2" d="M317.3,28.3l-0.7-0.1l0,0l0,0c0,0,0,0.1,0,0.1c0,0,0.1,0.1,0.1,0.1l0.7,0.6v-0.2l-0.6-0.5l0.6,0.1V28.3z"/>
	<path class="st2" d="M316.5,29.8c-0.1,0-0.1-0.1-0.2-0.1l0,0l-0.1,0l0,0c0.1,0.1,0.1,0.2,0.2,0.3l0,0l0,0c0,0,0.1-0.1,0.3-0.2
		c0.2-0.2,0.3-0.4,0.1-0.5c-0.1-0.1-0.2-0.2-0.4-0.1c-0.1,0-0.1,0-0.2,0c0,0-0.1,0-0.1,0c-0.1,0-0.2,0-0.3-0.1
		c-0.1-0.1-0.1-0.2,0.1-0.3c0.1-0.1,0.2-0.1,0.2-0.1c0,0,0.1,0.1,0.2,0.1l0,0l0.1,0l0,0c0-0.1-0.1-0.2-0.2-0.3l0,0l0,0
		c0,0-0.2,0-0.4,0.2c-0.1,0.1-0.2,0.2-0.2,0.3c0,0.1,0,0.2,0.1,0.3c0.1,0.1,0.3,0.2,0.5,0.1c0,0,0,0,0.1,0c0.1,0,0.1,0,0.1,0
		c0.1,0,0.2,0,0.2,0c0.1,0.1,0.1,0.2-0.1,0.3C316.6,29.8,316.6,29.8,316.5,29.8"/>
	<path class="st2" d="M317.3,30.3c-2,1.8-4.7,2.9-7.6,2.9c-6.4,0-11.6-5.2-11.6-11.6c0-3.6,1.7-6.9,4.3-9H301
		c-2.4,2.3-3.8,5.5-3.8,9c0,6.9,5.6,12.5,12.5,12.5c2.9,0,5.5-1,7.6-2.6V30.3z"/>
</g>
<path class="st3" d="M219.4,32.1c0-5.4-4-9.7-9-9.7c-5,0-9,4.3-9,9.7c0,5.4,4,9.7,9,9.7c1.5,0,3-0.4,4.3-1.1l-1-1
	c-1,0.5-2.1,0.8-3.3,0.8c-4.3,0-7.7-3.7-7.7-8.4c0-4.6,3.4-8.4,7.7-8.4c4.3,0,7.7,3.7,7.7,8.4c0,2.4-0.9,4.5-2.3,6l-4-4.2l-0.9,0.9
	l8.1,8.7l0.9-0.9l-3.2-3.5C218.4,37.4,219.4,34.9,219.4,32.1"/>
<g>
	<path class="st0" d="M76.9,23.3h1.7v17.9h-1.7V23.3z"/>
	<path class="st0" d="M82.3,23.3h1.9l10.4,15.1h0.1V23.3h1.7v17.9h-1.9L84.1,26H84v15.1h-1.7V23.3z"/>
	<path class="st0" d="M100,23.3h11.3v1.4h-9.6v6.5h8.6v1.5h-8.6v8.5H100V23.3z"/>
	<path class="st0" d="M120.9,22.9c5.6,0,8.4,4.4,8.4,9.3s-2.8,9.3-8.4,9.3c-5.6,0-8.4-4.4-8.4-9.3S115.2,22.9,120.9,22.9z
		 M120.9,40.1c4.7,0,6.7-4,6.7-7.9s-2-7.9-6.7-7.9c-4.7,0-6.7,4-6.7,7.9S116.1,40.1,120.9,40.1z"/>
	<path class="st0" d="M131.9,23.3h8.2c2.9,0,5.4,1.4,5.4,4.7c0,2.3-1.2,4.1-3.5,4.6v0c2.3,0.3,3,1.9,3.1,4c0.1,1.2,0.1,3.7,0.8,4.6
		h-1.9c-0.4-0.7-0.4-2-0.5-2.8c-0.1-2.5-0.4-5.3-3.6-5.2h-6.5v7.9h-1.7V23.3z M133.6,31.8h6.4c2.1,0,3.9-1.3,3.9-3.5
		c0-2.2-1.3-3.6-3.9-3.6h-6.4V31.8z"/>
	<path class="st0" d="M148.5,23.3h2.5l6.2,15.7l6.2-15.7h2.5v17.9h-1.7V25.7h0L158,41.2h-1.6l-6.1-15.4h0v15.4h-1.7V23.3z"/>
	<path class="st0" d="M174.6,23.3h1.9l7,17.9h-1.8l-2.2-5.6h-8.1l-2.2,5.6h-1.8L174.6,23.3z M171.9,34.1h7l-3.5-9.2L171.9,34.1z"/>
	<path class="st0" d="M181.5,23.3h14.2v1.4h-6.2v16.4h-1.7V24.7h-6.2V23.3z"/>
	<path class="st0" d="M197.5,23.3h1.7v17.9h-1.7V23.3z"/>
	<path class="st0" d="M221.3,23.3h1.7v11.1c0,4.1,1.9,5.7,5.2,5.7c3.3,0,5.3-1.6,5.3-5.7V23.3h1.7v11.4c0,3.7-2,6.8-7,6.8
		c-4.9,0-6.9-3.1-6.9-6.8V23.3z"/>
	<path class="st0" d="M238.6,23.3h12.3v1.4h-10.6v6.5h10v1.5h-10v7.1H251v1.4h-12.5V23.3z"/>
</g>
<g>
	<path class="st1" d="M24.9,29.1c-0.3-1.7-1.9-3-3.7-3c-3.4,0-4.7,2.9-4.7,5.9c0,2.9,1.3,5.7,4.7,5.7c2.3,0,3.6-1.6,3.9-3.8h3.7
		c-0.4,4.3-3.3,7-7.5,7c-5.3,0-8.4-4-8.4-8.9c0-5.1,3.1-9.1,8.4-9.1c3.7,0,6.9,2.2,7.4,6.2H24.9z"/>
	<path class="st1" d="M31.2,23.3h7.4c4.4,0,7.8,2.8,7.8,8.5c0,5-2.5,8.7-7.8,8.7h-7.4V23.3z M35,37.3h3.4c2.2,0,4.3-1.3,4.3-5.1
		c0-3.5-1.2-5.7-5-5.7H35V37.3z"/>
	<path class="st1" d="M60.5,29.1c-0.3-1.7-1.9-3-3.7-3c-3.4,0-4.7,2.9-4.7,5.9c0,2.9,1.3,5.7,4.7,5.7c2.3,0,3.6-1.6,3.9-3.8h3.7
		c-0.4,4.3-3.3,7-7.5,7c-5.3,0-8.4-4-8.4-8.9c0-5.1,3.1-9.1,8.4-9.1c3.7,0,6.9,2.2,7.4,6.2H60.5z"/>
</g>
<rect class="st4" width="330" height="65.3"/>
</svg>
